<?xml version="1.0" standalone="no"?>
<!DOCTYPE svg PUBLIC "-//W3C//DTD SVG 20010904//EN"
 "http://www.w3.org/TR/2001/REC-SVG-20010904/DTD/svg10.dtd">
<svg version="1.0" xmlns="http://www.w3.org/2000/svg"
 width="600.000000pt" height="600.000000pt" viewBox="0 0 600.000000 600.000000"
 preserveAspectRatio="xMidYMid meet">
<metadata>
Created by potrace 1.14, written by Peter Selinger 2001-2017
</metadata>
<g transform="translate(0.000000,600.000000) scale(0.100000,-0.100000)"
fill="#000000" stroke="none">
<path d="M2748 5845 c-2 -1 -43 -6 -93 -9 -157 -12 -356 -56 -525 -118 -165
-60 -389 -185 -515 -287 -66 -54 -252 -250 -290 -305 -22 -33 -47 -63 -55 -67
-8 -4 -49 -23 -90 -41 -310 -137 -617 -553 -784 -1063 -80 -244 -111 -444
-110 -710 0 -201 12 -306 58 -525 12 -54 69 -236 82 -262 8 -15 14 -29 14 -30
-2 -6 15 -47 56 -135 24 -53 46 -117 50 -150 4 -32 8 -60 9 -63 1 -3 5 -25 9
-50 5 -25 10 -53 12 -64 9 -48 56 -218 78 -284 171 -501 509 -879 966 -1080
83 -37 218 -81 296 -97 63 -13 83 -22 112 -51 89 -89 453 -215 752 -260 25 -3
53 -8 64 -10 129 -24 335 -23 391 2 33 15 74 18 240 20 110 1 216 5 235 8 19
3 56 8 81 11 25 3 56 8 70 10 13 3 40 8 59 11 19 3 43 7 52 10 9 3 27 7 40 10
13 3 28 6 33 8 125 34 168 49 265 88 109 46 213 104 266 150 12 10 63 30 115
44 178 47 360 158 537 329 180 172 346 407 401 568 75 216 -2 328 -249 367
-55 8 -315 6 -357 -4 -12 -2 -46 -7 -75 -10 -51 -6 -86 -11 -138 -21 -14 -3
-43 -7 -65 -11 -22 -3 -69 -20 -105 -38 -45 -23 -82 -33 -120 -35 -30 -1 -68
-4 -85 -6 -33 -4 -252 -17 -355 -20 -52 -2 -73 2 -105 20 -167 94 -277 140
-436 179 -120 29 -116 29 -304 51 -71 9 -192 18 -217 16 -22 -1 -29 4 -34 26
-24 110 -69 194 -170 318 -114 139 -185 237 -214 295 -37 75 -104 283 -125
391 -14 72 -99 417 -105 429 -6 10 3 27 30 56 47 52 72 100 140 274 64 164 91
219 141 286 57 78 170 169 304 244 33 19 71 41 85 50 14 10 57 37 95 61 93 58
194 130 283 202 l73 59 82 -6 c293 -20 752 -26 977 -13 137 8 169 12 280 34
97 19 92 17 115 30 25 13 59 11 355 -24 163 -19 230 -2 270 68 32 59 25 159
-18 249 -167 351 -713 652 -1422 784 -14 3 -48 9 -77 15 -29 6 -74 13 -100 16
-26 4 -73 10 -103 15 -30 5 -86 11 -125 15 -38 4 -83 8 -100 10 -102 14 -895
31 -907 20z"/>
</g>
</svg>
